<svg xmlns:inkscape="http://www.inkscape.org/namespaces/inkscape" xmlns:sodipodi="http://sodipodi.sourceforge.net/DTD/sodipodi-0.dtd" xmlns="http://www.w3.org/2000/svg" xmlns:svg="http://www.w3.org/2000/svg" viewBox="0 0 834.60175 301.22748"><g transform="translate(28.5,-80.610173)"><path style="fill:#004000;fill-opacity:1;stroke:none;stroke-width:0.292" d="M -27.577164,272.94322 H 192.33304 V 80.610173 H 615 V 264.5 H 806.10173 V 381.83766 H -28.5 Z"/><path style="fill:#000000;fill-opacity:1;stroke:none;stroke-width:0.292" d="M 732.62109,307.67969 H 720.375 c -0.19552,3.88028 -2.94193,6.10594 -6.1875,8.00781 l -41.68476,19.34853 c -2.14425,1.65342 -4.13281,3.38239 1.55976,8.83897 H 632 l 51.77226,-24.21854 c 3.65036,-1.80873 2.26791,-11.53313 -2.43068,-11.71146 H 522.53125 c -4.12001,0.60092 -7.23908,2.72327 -7.21875,9.6175 V 334.25 c 0.28243,4.97734 2.55085,6.75333 6.6875,9.3125 h -29.8125 c 4.53153,-1.55438 8.36874,-3.6355 8.125,-8.8125 v -18.125 c -0.32882,-5.42118 -2.80231,-8.69769 -8.625,-8.625 h -106.75 c -2.87853,0.40074 -5.36851,1.6728 -5.53052,8.16512 v 17.23573 c 0.24541,4.87992 2.14715,8.80832 7.91076,10.51821 h -31.46625 c 4.71343,-1.38286 8.47369,-3.74215 8.39689,-10.03208 v -18.16823 c -0.16965,-6.19469 -3.82766,-7.61582 -8.44109,-7.72955 H 246.125 c -5.28127,0.15885 -10.38259,8.53939 -2.34994,13.34664 l 49.66244,23.35166 h -42.75 c 5.79069,-3.96963 6.06053,-6.98819 1.9375,-9.25 l -41.59375,-19.71875 c -3.29169,-2.23476 -5.12872,-4.8646 -5.04688,-8.01563 L 96.667969,307.50781 V 296.1875 H 206.84375 c 5.47,-0.21522 7.46681,-3.46025 7.40625,-8.5 v -45.85698 c 0.68429,-5.68606 3.26062,-9.53338 9.84375,-9.48677 h 30.68566 c 4.12142,-0.2073 7.52604,-1.74394 7.11526,-10.35642 v -30.64358 h 252.6581 v 10.91089 c 0.38933,5.67543 1.78256,10.40842 7.88866,10.71708 5.64437,-0.1411 7.46447,-4.5845 7.46881,-11.07064 v -10.54171 h 58.93293 v 89.17188 H 530 v -36.35844 c -0.003,-3.50679 -1.46297,-8.60082 -7.89003,-8.66206 -5.3465,0.0406 -6.86849,4.12997 -6.98268,9.32497 v 42.29383 c 0.30934,5.08972 2.453,7.96297 6.76171,8.22011 l 210.73209,-0.0723 z"/><path style="fill:#000000;fill-opacity:1;stroke:none;stroke-width:0.292" d="m 36.576936,344.33357 v 14.14876 h 41.453861 l 4.252174,-14.15296 c -7.773628,-1.94143 -11.32947,-4.59278 -11.468289,-7.81928 v -19.05631 h 1.488564 l 33.571394,28.07067 h 14.40394 l -31.258991,-26.2168 c -2.083038,-2.0371 -0.732605,-11.8177 7.658893,-11.78908 V 296.18812 H 40.092859 c -4.330311,0.76618 -8.391453,2.02835 -8.052597,11.39839 0.212022,3.93735 0.407905,7.87194 2.444804,12.12213 l 10.626212,21.85391 c 0.841044,1.97513 0.289991,2.79017 -1.363363,2.68663 z"/><path style="fill:#000000;fill-opacity:1;stroke:none;stroke-width:0.292" d="m 784.7157,343.46725 v 14.1361 h -19.08709 l -24.05276,-13.88687 c 5.92465,-1.37278 10.86814,-3.46374 11.65384,-8.59802 V 313.5409 c 0.006,-5.61602 -2.99787,-5.59845 -5.85514,-5.85515 h -14.75837 v -12.4174 h 52.71049 c 4.61325,0.58433 5.14167,4.04431 5.22342,9.2829 0.13455,7.05612 -1.45885,10.88671 -2.87003,15.05745 l -10.9641,23.638 z"/><path style="fill:none;fill-opacity:1;stroke:#d0d900;stroke-width:0.246;stroke-dasharray:none;stroke-opacity:1" d="m 95.219178,306.81411 -0.04054,-9.78723 1.262605,-0.003 0.0558,9.78096 z"/><g><path style="fill:none;fill-opacity:1;stroke:#d0d900;stroke-width:0.246;stroke-dasharray:none;stroke-opacity:1" d="m 77.242174,318.60102 4.54349,-0.16555 z"/><path style="fill:none;fill-opacity:1;stroke:#d0d900;stroke-width:0.246;stroke-dasharray:none;stroke-opacity:1" d="m 78.845784,320.16353 1.19974,-3.29055 z"/></g><g transform="translate(5.1435866,-3.3169859)"><path style="fill:none;fill-opacity:1;stroke:#d0d900;stroke-width:0.246;stroke-dasharray:none;stroke-opacity:1" d="m 77.242174,318.60102 4.54349,-0.16555 z"/><path style="fill:none;fill-opacity:1;stroke:#d0d900;stroke-width:0.246;stroke-dasharray:none;stroke-opacity:1" d="m 78.845784,320.16353 1.19974,-3.29055 z"/></g><g transform="translate(28.629722,22.683014)"><path style="fill:none;fill-opacity:1;stroke:#d0d900;stroke-width:0.246;stroke-dasharray:none;stroke-opacity:1" d="m 77.242174,318.60102 4.54349,-0.16555 z"/><path style="fill:none;fill-opacity:1;stroke:#d0d900;stroke-width:0.246;stroke-dasharray:none;stroke-opacity:1" d="m 78.845784,320.16353 1.19974,-3.29055 z"/></g><path style="fill:none;fill-opacity:1;stroke:#d0d900;stroke-width:0.246;stroke-dasharray:none;stroke-opacity:1" d="m 241.05835,329.32488 3.40041,-7.00821 1.13973,0.5433 -3.4502,7.00918 z"/><path style="fill:none;fill-opacity:1;stroke:#d0d900;stroke-width:0.246;stroke-dasharray:none;stroke-opacity:1" d="m 676.69226,332.24794 -3.33496,-7.0396 1.13728,-0.54842 3.30453,7.07902 z"/><path style="fill:none;fill-opacity:1;stroke:#d0d900;stroke-width:0.246;stroke-dasharray:none;stroke-opacity:1" d="m 514.4761,329.36383 -13.1591,0.0376 -0.0148,-1.26252 13.20401,0.007 z"/><path style="fill:none;fill-opacity:1;stroke:#d0d900;stroke-width:0.246;stroke-dasharray:none;stroke-opacity:1" d="m 378.2046,330.34799 -13.1591,0.0376 -0.0148,-1.26252 13.20401,0.007 z"/><path style="fill:none;fill-opacity:1;stroke:#d0d900;stroke-width:0.246;stroke-dasharray:none;stroke-opacity:1" d="m 764.60771,328.22061 -11.25875,0.0376 -0.0148,-1.26252 11.25947,0.007 z"/><path style="fill:none;fill-opacity:1;stroke:#d0d900;stroke-width:0.246;stroke-dasharray:none;stroke-opacity:1" d="m 781.27547,332.94028 -8.89323,-4.74741 0.56786,-1.00581 8.89467,4.67646 z"/><path style="fill:#004000;fill-opacity:1;stroke:none;stroke-width:0.292" d="m 766.106,322.66166 c 0.26517,0.0221 7.00478,0 7.00478,0 0.61249,0.0474 0.95848,0.35803 0.71961,1.2464 l -4.81477,11.15444 c -0.54241,1.16633 -4.04584,0.86056 -4.04687,0 v -11.35123 c 0.0137,-0.68714 0.3127,-1.11094 1.13725,-1.04961 z"/><path style="fill:#004000;fill-opacity:1;stroke:none;stroke-width:0.292" d="m 44.84375,308.1875 c 5.856469,0.0947 12.00914,2.72133 12.03125,5.03125 V 328.75 c -0.005,0.89458 -0.231364,1.27763 -0.8125,1.25 H 53.375 c -0.696881,0.0161 -1.068154,-0.52602 -1.40625,-1.125 l -7.664091,-16.48848 c -0.777556,-2.47015 -0.620798,-3.89547 0.539091,-4.19902 z"/><path style="fill:#004000;fill-opacity:1;stroke:none;stroke-width:0.292" d="m 70.546875,314.23438 34.370095,30.34759 H 81.3125 c -7.595374,-2.30348 -10.778569,-5.35489 -11.25,-8.23822 z"/><path style="fill:#000000;fill-opacity:1;stroke:none;stroke-width:0.292" d="m 68.54673,344.14684 698.14451,-0.86004 v 14.19502 l -698.272522,1.02886 z"/><path style="fill:#004000;fill-opacity:1;stroke:none;stroke-width:0.292" d="m 385.625,281.1875 c -4.28755,0.0257 -5.53874,3.57729 -5.5,7.21875 0.0325,3.06689 1.31881,6.72644 5.8125,6.71875 h 107.46835 c 3.2101,0.0174 5.7929,-2.87413 5.7504,-7 0.016,-4.85264 -2.75024,-6.84342 -6.25,-6.8125 z"/><path style="fill:#004000;fill-opacity:1;stroke:none;stroke-width:0.292" d="m 358.1875,280.375 c 3.20265,0.0683 5.61105,2.91697 5.59375,7.4375 -0.003,3.84313 -2.65106,8.07567 -7.21875,8.0625 H 235.25 c -5.9019,-0.57289 -8.3158,-4.85642 -8.6875,-11.3125 v -29.875 c 0.57788,-5.32698 2.37153,-9.24436 7,-9.875 h 21.0625 c 5.61694,0.29797 6.99321,4.77201 7.4375,9.75 L 262.17364,280 Z"/><path style="fill:#00008d;fill-opacity:1;stroke:none;stroke-width:0.292" d="m 259.4375,155.34375 h 25.25 v 6.14176 h -1.91108 v 14.12004 H 253.3652 v -14.34101 h 2.85052 v -3.09359 h 3.24827 z"/><path style="fill:#00008d;fill-opacity:1;stroke:none;stroke-width:0.292" d="m 296.28125,158.3125 h 8.3125 v 13.53125 h -8.375 V 170.625 H 295 V 159.5 h 1.3125 z"/><path style="fill:#00008d;fill-opacity:1;stroke:none;stroke-width:0.292" d="m 320.3125,161.75 h 21.59375 v -21.59375 h -15.5625 V 113.0045 h 34.54587 v -2.82842 h 106.11021 v 2.74003 h 12.9489 v 27.48878 h -16.08668 v 21.03261 h 23.15774 v 21.28331 H 320.23098 Z"/><path style="fill:#00008d;fill-opacity:1;stroke:none;stroke-width:0.292" d="m 509.51463,139.30004 h 15.60054 v 12.63953 h -15.51215 z"/><path style="fill:none;fill-opacity:1;stroke:#ffffff;stroke-width:0.246;stroke-dasharray:none;stroke-opacity:1" d="m 68.782016,344.39209 697.711584,-0.91525 0.004,13.80382 -697.841528,0.9793 z"/><g transform="matrix(1.8293299,0.01294646,-0.01294646,1.8293299,-283.8423,-265.25243)"><path style="fill:#ffffff;fill-opacity:1;stroke:none;stroke-width:0.246;stroke-dasharray:none;stroke-opacity:1" d="m 195.2637,332.01599 5.18729,-0.0497 0.006,0.51376 -5.19282,0.0552 z"/><path style="fill:#ffffff;fill-opacity:1;stroke:none;stroke-width:0.246;stroke-dasharray:none;stroke-opacity:1" d="m 195.26516,332.59671 5.18729,-0.0497 0.006,0.51376 -5.19282,0.0552 z"/><path style="fill:#ffffff;fill-opacity:1;stroke:none;stroke-width:0.246;stroke-dasharray:none;stroke-opacity:1" d="m 195.27069,333.19344 5.18729,-0.0497 0.006,0.51376 -5.19282,0.0552 z"/><path style="fill:#ffffff;fill-opacity:1;stroke:none;stroke-width:0.246;stroke-dasharray:none;stroke-opacity:1" d="m 195.28174,333.79006 5.18729,-0.0497 0.006,0.51376 -5.19282,0.0552 z"/><path style="fill:#ffffff;fill-opacity:1;stroke:none;stroke-width:0.246;stroke-dasharray:none;stroke-opacity:1" d="m 195.2708,338.78453 5.18729,-0.0497 0.006,0.51376 -5.19282,0.0552 z"/><path style="fill:#ffffff;fill-opacity:1;stroke:none;stroke-width:0.246;stroke-dasharray:none;stroke-opacity:1" d="m 195.27621,338.19333 5.18729,-0.0497 0.006,0.51376 -5.19282,0.0552 z"/><path style="fill:#ffffff;fill-opacity:1;stroke:none;stroke-width:0.246;stroke-dasharray:none;stroke-opacity:1" d="m 195.26517,337.60212 5.18729,-0.0497 0.006,0.51376 -5.19282,0.0552 z"/><path style="fill:#ffffff;fill-opacity:1;stroke:none;stroke-width:0.246;stroke-dasharray:none;stroke-opacity:1" d="m 195.26517,337.01103 5.18729,-0.0497 0.006,0.51376 -5.19282,0.0552 z"/><path style="fill:#ffffff;fill-opacity:1;stroke:none;stroke-width:0.246;stroke-dasharray:none;stroke-opacity:1" d="m 195.26517,336.40877 5.18729,-0.0497 0.006,0.51376 -5.19282,0.0552 z"/><path style="fill:#ffffff;fill-opacity:1;stroke:none;stroke-width:0.246;stroke-dasharray:none;stroke-opacity:1" d="m 195.25964,335.82873 5.18729,-0.0497 0.006,0.51376 -5.19282,0.0552 z"/><path style="fill:#ffffff;fill-opacity:1;stroke:none;stroke-width:0.246;stroke-dasharray:none;stroke-opacity:1" d="m 195.28756,334.38129 5.18729,-0.0497 0.006,0.51376 -5.19282,0.0552 z"/><path style="fill:#ffffff;fill-opacity:1;stroke:none;stroke-width:0.246;stroke-dasharray:none;stroke-opacity:1" d="m 195.28677,334.96399 5.18729,-0.0497 0.006,0.51376 -5.19282,0.0552 z"/></g><g transform="matrix(1.8293299,0.01294646,-0.01294646,1.8293299,403.86471,-266.15224)"><path style="fill:#ffffff;fill-opacity:1;stroke:none;stroke-width:0.246;stroke-dasharray:none;stroke-opacity:1" d="m 195.2637,332.01599 5.18729,-0.0497 0.006,0.51376 -5.19282,0.0552 z"/><path style="fill:#ffffff;fill-opacity:1;stroke:none;stroke-width:0.246;stroke-dasharray:none;stroke-opacity:1" d="m 195.26516,332.59671 5.18729,-0.0497 0.006,0.51376 -5.19282,0.0552 z"/><path style="fill:#ffffff;fill-opacity:1;stroke:none;stroke-width:0.246;stroke-dasharray:none;stroke-opacity:1" d="m 195.27069,333.19344 5.18729,-0.0497 0.006,0.51376 -5.19282,0.0552 z"/><path style="fill:#ffffff;fill-opacity:1;stroke:none;stroke-width:0.246;stroke-dasharray:none;stroke-opacity:1" d="m 195.28174,333.79006 5.18729,-0.0497 0.006,0.51376 -5.19282,0.0552 z"/><path style="fill:#ffffff;fill-opacity:1;stroke:none;stroke-width:0.246;stroke-dasharray:none;stroke-opacity:1" d="m 195.2708,338.78453 5.18729,-0.0497 0.006,0.51376 -5.19282,0.0552 z"/><path style="fill:#ffffff;fill-opacity:1;stroke:none;stroke-width:0.246;stroke-dasharray:none;stroke-opacity:1" d="m 195.27621,338.19333 5.18729,-0.0497 0.006,0.51376 -5.19282,0.0552 z"/><path style="fill:#ffffff;fill-opacity:1;stroke:none;stroke-width:0.246;stroke-dasharray:none;stroke-opacity:1" d="m 195.26517,337.60212 5.18729,-0.0497 0.006,0.51376 -5.19282,0.0552 z"/><path style="fill:#ffffff;fill-opacity:1;stroke:none;stroke-width:0.246;stroke-dasharray:none;stroke-opacity:1" d="m 195.26517,337.01103 5.18729,-0.0497 0.006,0.51376 -5.19282,0.0552 z"/><path style="fill:#ffffff;fill-opacity:1;stroke:none;stroke-width:0.246;stroke-dasharray:none;stroke-opacity:1" d="m 195.26517,336.40877 5.18729,-0.0497 0.006,0.51376 -5.19282,0.0552 z"/><path style="fill:#ffffff;fill-opacity:1;stroke:none;stroke-width:0.246;stroke-dasharray:none;stroke-opacity:1" d="m 195.25964,335.82873 5.18729,-0.0497 0.006,0.51376 -5.19282,0.0552 z"/><path style="fill:#ffffff;fill-opacity:1;stroke:none;stroke-width:0.246;stroke-dasharray:none;stroke-opacity:1" d="m 195.28756,334.38129 5.18729,-0.0497 0.006,0.51376 -5.19282,0.0552 z"/><path style="fill:#ffffff;fill-opacity:1;stroke:none;stroke-width:0.246;stroke-dasharray:none;stroke-opacity:1" d="m 195.28677,334.96399 5.18729,-0.0497 0.006,0.51376 -5.19282,0.0552 z"/></g><path style="fill:none;fill-opacity:1;stroke:#c9c9c9;stroke-width:0.246;stroke-dasharray:none;stroke-opacity:1" d="m 69.018014,351.28394 697.250346,-0.9272"/></g></svg>